# xmcd
#
# Track frame offsets:
#	150
#	14313
#	28870
#	41338
#	57165
#	72687
#	90577
#	113322
#	128717
#	147465
#	157104
#
# Disc length: 2294 seconds
#
# Revision: 1
# Processed by: cddbd v1.4PL0 Copyright (c) Steve Scherf et al.
# Submitted via: audiograbber 1.80.04
#
DISCID=9208f40b
DTITLE=The Schramms - One Hundred Questions
DYEAR=2000
DGENRE=Alternative
TTITLE0=300 Answers
TTITLE1=Torn In Two
TTITLE2=Deny You
TTITLE3=I'll Believe
TTITLE4=Simple Arithmetic
TTITLE5=Mary Come Lately
TTITLE6=She Says
TTITLE7=Trips To Heaven And Back
TTITLE8=Yesterday Falls Away
TTITLE9=I Know It's Mine
TTITLE10=Mailbox
EXTD=
EXTT0=
EXTT1=
EXTT2=
EXTT3=
EXTT4=
EXTT5=
EXTT6=
EXTT7=
EXTT8=
EXTT9=
EXTT10=
PLAYORDER=
